<?xml version="1.0" encoding="utf-8"?>
<!-- Generator: Adobe Illustrator 24.1.2, SVG Export Plug-In . SVG Version: 6.00 Build 0)  -->
<svg version="1.1" id="Layer_1" xmlns="http://www.w3.org/2000/svg" xmlns:xlink="http://www.w3.org/1999/xlink" x="0px" y="0px"
	 viewBox="0 0 1024 89" style="enable-background:new 0 0 1024 89;" xml:space="preserve">
<style type="text/css">
	.st0{fill:#FFFFFF;}
</style>
<g>
	<path class="st0" d="M83.8,89H48.59V70.75H35.3V89H0.08V0h70.1C78.71,0,83.8,4.45,83.8,13.68v22.14c0,8.68-4.1,12.24-9.86,13.68
		v0.22c5.54,0.67,9.86,5.9,9.86,11.68V89z M48.59,36.93V22.81H35.3v14.13H48.59z"/>
	<path class="st0" d="M173.17,89h-35.44V78.21h-13.29V89H89.33V13.68C89.33,6.01,93.43,0,102.95,0h56.37
		c8.53,0,13.84,5.9,13.84,13.68V89z M137.84,43.28V27.59h-13.29v15.69H137.84z"/>
	<path class="st0" d="M248.79,65.08h-14.51V89h-55.04V0h69.55v27.59h-14.51v9.79h14.51V65.08z"/>
	<path class="st0" d="M309.37,89h-55.04V0h55.04V89z"/>
	<path class="st0" d="M395.41,89h-33V70.2h-13.29V89H316V0h30.79l15.61,13.13V0h33V89z"/>
	<path class="st0" d="M485.32,89h-35.44V78.21H436.6V89h-35.11V13.68c0-7.68,4.1-13.68,13.62-13.68h56.37
		c8.53,0,13.84,5.9,13.84,13.68V89z M450,43.28V27.59h-13.29v15.69H450z"/>
	<path class="st0" d="M601.52,89H566.3V70.75h-13.29V89H517.8V0h70.1c8.53,0,13.62,4.45,13.62,13.68v22.14
		c0,8.68-4.1,12.24-9.86,13.68v0.22c5.54,0.67,9.86,5.9,9.86,11.68V89z M566.3,36.93V22.81h-13.29v14.13H566.3z"/>
	<path class="st0" d="M691.22,89h-35.11V70.2h-13.29V89H607.6V0h35.22v18.91h13.29V0h35.11V89z"/>
	<path class="st0" d="M781.02,75.32c0,8.57-4.76,13.68-13.62,13.68h-56.48c-10.08,0-13.62-4.56-13.62-13.68V13.68
		c0-8.9,4.87-13.68,13.62-13.68h56.48c8.42,0,13.62,3.11,13.62,13.68V75.32z M745.8,64.08V25.03h-13.29v39.05H745.8z"/>
	<path class="st0" d="M871.05,75.2c0,8.9-4.76,13.79-13.73,13.79H787.1V0h70.32c9.74,0,13.62,4.34,13.62,13.57V75.2z M835.72,63.63
		v-38.6h-13.29v38.6H835.72z"/>
	<path class="st0" d="M946.68,89h-69.55V0h69.55v27.59h-14.51v9.79h14.51v14.35h-14.51v9.68h14.51V89z"/>
	<path class="st0" d="M1024.08,27.59h-15.95v9.9h15.84v37.83c0,8.12-4.65,13.68-13.62,13.68h-58.14V61.41h15.95V51.29h-15.95v-37.6
		C952.21,4.12,957.3,0,965.83,0h58.25V27.59z"/>
</g>
</svg>
